# This file uses meters as units for non-parametric coordinates.

mtllib Fountain.mtl
g default
v 144.000000 -0.000001 -0.000011
v 71.999985 0.000020 -124.707680
v -72.000031 0.000060 -124.707657
v -144.000015 0.000081 0.000023
v -71.999985 0.000060 124.707680
v 72.000000 0.000020 124.707672
v 144.000015 39.509293 -0.000011
v 72.000000 39.509315 -124.707687
v -72.000023 39.509357 -124.707664
v -144.000000 39.509380 0.000023
v -71.999977 39.509354 124.707680
v 72.000015 39.509319 124.707664
v 120.560547 39.509300 -0.000009
v 60.280266 39.509319 -104.408501
v -60.280273 39.509354 -104.408478
v -120.560532 39.509373 0.000020
v -60.280231 39.509354 104.408493
v 60.280277 39.509319 104.408485
v 107.557762 14.237676 -0.000008
v 53.778873 14.237691 -93.147774
v -53.778896 14.237720 -93.147751
v -107.557762 14.237737 0.000018
v -53.778866 14.237721 93.147766
v 53.778877 14.237691 93.147758
v 17.817369 14.237701 30.860600
v -17.817369 14.237711 30.860601
v -35.634750 14.237717 0.000008
v -17.817379 14.237711 -30.860596
v 17.817369 14.237701 -30.860598
v 35.634735 14.237696 -0.000000
v 40.666645 135.430313 70.436630
v -40.666569 135.430344 70.436638
v -81.333191 135.430344 0.000018
v -40.666592 135.430344 -70.436653
v 40.666637 135.430313 -70.436661
v 81.333252 135.430313 -0.000001
v 24.050699 78.636841 0.000000
v 12.025355 78.636848 -20.828505
v -12.025331 78.636848 -20.828503
v -24.050671 78.636848 0.000006
v -12.025322 78.636848 20.828505
v 12.025357 78.636848 20.828503
v 64.683556 135.430313 -0.000001
v 32.341797 135.430313 56.017582
v -32.341724 135.430344 56.017586
v -64.683502 135.430344 0.000014
v -32.341740 135.430328 -56.017593
v 32.341789 135.430313 -56.017597
v 47.005039 122.353485 -0.000001
v 23.502535 122.353493 40.707539
v -23.502472 122.353508 40.707542
v -47.004993 122.353516 0.000009
v -23.502487 122.353508 -40.707546
v 23.502531 122.353493 -40.707550
v 58.035065 129.901337 -0.000001
v 29.017551 129.901352 50.259819
v -29.017479 129.901367 50.259823
v -58.035015 129.901367 0.000012
v -29.017496 129.901367 -50.259827
v 29.017548 129.901352 -50.259830
v 115.755798 26.702198 -0.000009
v 57.877892 26.702213 -100.247482
v -57.877911 26.702246 -100.247475
v -115.755798 26.702261 0.000019
v -57.877876 26.702246 100.247482
v 57.877903 26.702213 100.247475
v 20.012848 122.353500 -0.000002
v 10.006438 122.353508 17.331614
v -10.006381 122.353508 17.331614
v -20.012796 122.353516 0.000003
v -10.006387 122.353508 -17.331617
v 10.006434 122.353508 -17.331619
v 12.259600 194.468231 0.000010
v 6.129823 194.468231 10.617096
v -6.129728 194.468246 10.617097
v -12.259506 194.468246 0.000013
v -6.129731 194.468246 -10.617075
v 6.129821 194.468231 -10.617076
vt 0.383629 0.577896
vt 0.324771 0.631967
vt 0.398768 0.670551
vt 0.356069 0.651630
vt 0.350540 0.654822
vt 0.872884 0.824863
vt 0.897060 0.782989
vt 0.446425 0.588710
vt 0.427958 0.522682
vt 0.480619 0.658764
vt 0.321756 0.700085
vt 0.278022 0.689340
vt 0.350540 0.623637
vt 0.404692 0.631204
vt 0.334482 0.611586
vt 0.280515 0.699949
vt 0.454118 0.704092
vt 0.412877 0.704092
vt 0.321756 0.699949
vt 0.356069 0.626829
vt 0.377548 0.608044
vt 0.323251 0.666272
vt 0.357527 0.670551
vt 0.298679 0.638484
vt 0.457550 0.631104
vt 0.439764 0.646578
vt 0.448485 0.631403
vt 0.461104 0.670551
vt 0.461104 0.685700
vt 0.442326 0.590661
vt 0.410384 0.693484
vt 0.355034 0.681160
vt 0.280515 0.700085
vt 0.355034 0.727160
vt 0.377548 0.614428
vt 0.945412 0.866737
vt 0.897060 0.866737
vt 0.945412 0.782989
vt 0.969588 0.824863
vt 0.841379 0.831036
vt 0.329782 0.611586
vt 0.771371 0.871455
vt 0.456610 0.693484
vt 0.480619 0.612538
vt 0.398908 0.569906
vt 0.376055 0.572635
vt 0.401260 0.727160
vt 0.404555 0.623637
vt 0.327431 0.615657
vt 0.433074 0.592505
vt 0.439068 0.573245
vt 0.459884 0.580288
vt 0.350540 0.704092
vt 0.350540 0.688943
vt 0.405754 0.688943
vt 0.405754 0.704092
vt 0.457686 0.608044
vt 0.472835 0.608044
vt 0.392786 0.553788
vt 0.383629 0.552694
vt 0.376153 0.522682
vt 0.315985 0.619438
vt 0.273529 0.681557
vt 0.472835 0.663258
vt 0.324249 0.710693
vt 0.841379 0.992712
vt 0.432742 0.571479
vt 0.427958 0.592635
vt 0.437842 0.591934
vt 0.398908 0.560684
vt 0.399027 0.651630
vt 0.427821 0.580888
vt 0.407119 0.604210
vt 0.392786 0.576802
vt 0.399027 0.626829
vt 0.350540 0.704228
vt 0.328743 0.666408
vt 0.328743 0.681557
vt 0.405890 0.670551
vt 0.911387 0.952293
vt 0.277043 0.611586
vt 0.377548 0.664031
vt 0.418002 0.654264
vt 0.413757 0.630905
vt 0.450449 0.586197
vt 0.334482 0.619728
vt 0.911387 0.871455
vt 0.435750 0.573642
vt 0.398768 0.737769
vt 0.357527 0.737769
vt 0.324249 0.689340
vt 0.407119 0.526380
vt 0.491227 0.615031
vt 0.422333 0.646290
vt 0.422478 0.615730
vt 0.444240 0.608044
vt 0.439908 0.616018
vt 0.771371 0.952293
vt 0.329782 0.619728
vt 0.417663 0.608044
vt 0.437610 0.574341
vt 0.401261 0.681160
vt 0.327295 0.648771
vt 0.457686 0.663258
vt 0.376153 0.607908
vt 0.377548 0.670415
vt 0.491227 0.656271
vt 0.294843 0.632674
vt 0.297109 0.635145
vt 0.295889 0.642565
vt 0.273529 0.651125
vt 0.290439 0.633603
vt 0.444579 0.654264
vt 0.427821 0.549702
vt 0.404555 0.654822
vt 0.291633 0.611586
vt 0.405890 0.685700
vt 0.405754 0.719377
vt 0.273529 0.733625
vt 0.273529 0.718476
vt 0.328743 0.718476
vt 0.328743 0.733625
vt 0.405754 0.704228
vt 0.350540 0.719377
vt 0.350540 0.590117
vt 0.303820 0.612708
vt 0.440373 0.569540
vt 0.336833 0.615657
vt 0.273529 0.666408
vt 0.278023 0.710693
vn 1.000000 -0.000000 -0.000000
vn 0.792407 0.609992 -0.000000
vn 0.396200 0.609986 0.686253
vn 0.500000 -0.000000 0.866025
vn 0.500000 -0.000000 0.866025
vn 0.396200 0.609986 0.686253
vn -0.396199 0.609986 0.686253
vn -0.500000 0.000000 0.866025
vn -0.500000 0.000000 0.866025
vn -0.396199 0.609986 0.686253
vn -0.792407 0.609993 0.000000
vn -1.000000 0.000000 0.000000
vn -1.000000 0.000000 0.000000
vn -0.792407 0.609993 0.000000
vn -0.396199 0.609986 -0.686253
vn -0.500000 0.000000 -0.866025
vn -0.500000 0.000000 -0.866025
vn -0.396199 0.609986 -0.686253
vn 0.396200 0.609986 -0.686253
vn 0.500000 -0.000000 -0.866026
vn 0.500000 -0.000000 -0.866026
vn 0.396200 0.609986 -0.686253
vn 0.792407 0.609992 -0.000000
vn 1.000000 -0.000000 -0.000000
vn 0.396200 0.609986 0.686253
vn 0.792407 0.609992 -0.000000
vn -0.372606 0.927990 0.000000
vn -0.186287 0.927986 -0.322706
vn -0.396199 0.609986 0.686253
vn 0.396200 0.609986 0.686253
vn -0.186287 0.927986 -0.322706
vn 0.186287 0.927986 -0.322706
vn -0.792407 0.609993 0.000000
vn -0.396199 0.609986 0.686253
vn 0.186287 0.927986 -0.322706
vn 0.372606 0.927990 -0.000000
vn -0.396199 0.609986 -0.686253
vn -0.792407 0.609993 0.000000
vn 0.372606 0.927990 -0.000000
vn 0.186287 0.927986 0.322706
vn 0.396200 0.609986 -0.686253
vn -0.396199 0.609986 -0.686253
vn 0.186287 0.927986 0.322706
vn -0.186287 0.927986 0.322706
vn 0.792407 0.609992 -0.000000
vn 0.396200 0.609986 -0.686253
vn -0.186287 0.927986 0.322706
vn -0.372606 0.927990 0.000000
vn -0.186287 0.927986 -0.322706
vn -0.372606 0.927990 0.000000
vn -0.889203 0.457513 0.000000
vn -0.444601 0.457513 -0.770072
vn 0.186287 0.927986 -0.322706
vn -0.186287 0.927986 -0.322706
vn -0.444601 0.457513 -0.770072
vn 0.444602 0.457513 -0.770072
vn 0.372606 0.927990 -0.000000
vn 0.186287 0.927986 -0.322706
vn 0.444602 0.457513 -0.770072
vn 0.889203 0.457513 -0.000000
vn 0.186287 0.927986 0.322706
vn 0.372606 0.927990 -0.000000
vn 0.889203 0.457513 -0.000000
vn 0.444602 0.457513 0.770072
vn -0.186287 0.927986 0.322706
vn 0.186287 0.927986 0.322706
vn 0.444602 0.457513 0.770072
vn -0.444601 0.457513 0.770072
vn -0.372606 0.927990 0.000000
vn -0.186287 0.927986 0.322706
vn -0.444601 0.457513 0.770072
vn -0.889203 0.457513 0.000000
vn 0.420030 -0.542502 -0.727507
vn 0.840056 -0.542500 -0.000000
vn 0.420030 -0.542502 0.727507
vn -0.420030 -0.542502 0.727507
vn -0.840056 -0.542499 0.000000
vn -0.420030 -0.542502 -0.727507
vn -0.213756 0.976887 0.000000
vn -0.106878 0.976885 0.185129
vn -0.297344 0.803957 0.515015
vn -0.594688 0.803957 -0.000000
vn 0.935041 -0.354540 -0.000000
vn 0.467524 -0.354542 -0.809766
vn 0.476107 0.305349 -0.824672
vn 0.952241 0.305348 -0.000000
vn 0.467524 -0.354542 -0.809766
vn -0.467524 -0.354542 -0.809766
vn -0.476107 0.305349 -0.824672
vn 0.476107 0.305349 -0.824672
vn -0.467524 -0.354542 -0.809766
vn -0.935041 -0.354539 0.000000
vn -0.952241 0.305348 0.000000
vn -0.476107 0.305349 -0.824672
vn -0.935041 -0.354539 0.000000
vn -0.467524 -0.354542 0.809766
vn -0.476107 0.305349 0.824672
vn -0.952241 0.305348 0.000000
vn -0.467524 -0.354542 0.809766
vn 0.467524 -0.354542 0.809766
vn 0.476107 0.305349 0.824672
vn -0.476107 0.305349 0.824672
vn 0.467524 -0.354542 0.809766
vn 0.935041 -0.354540 -0.000000
vn 0.952241 0.305348 -0.000000
vn 0.476107 0.305349 0.824672
vn 0.420030 -0.542502 0.727507
vn 0.840056 -0.542500 -0.000000
vn 0.935041 -0.354540 -0.000000
vn 0.467524 -0.354542 0.809766
vn -0.420030 -0.542502 0.727507
vn 0.420030 -0.542502 0.727507
vn 0.467524 -0.354542 0.809766
vn -0.467524 -0.354542 0.809766
vn -0.840056 -0.542499 0.000000
vn -0.420030 -0.542502 0.727507
vn -0.467524 -0.354542 0.809766
vn -0.935041 -0.354539 0.000000
vn -0.420030 -0.542502 -0.727507
vn -0.840056 -0.542499 0.000000
vn -0.935041 -0.354539 0.000000
vn -0.467524 -0.354542 -0.809766
vn 0.420030 -0.542502 -0.727507
vn -0.420030 -0.542502 -0.727507
vn -0.467524 -0.354542 -0.809766
vn 0.467524 -0.354542 -0.809766
vn 0.840056 -0.542500 -0.000000
vn 0.420030 -0.542502 -0.727507
vn 0.467524 -0.354542 -0.809766
vn 0.935041 -0.354540 -0.000000
vn -0.213756 0.976887 0.000000
vn -0.106878 0.976891 -0.185099
vn 0.476107 0.305349 0.824672
vn 0.952241 0.305348 -0.000000
vn -0.106878 0.976891 -0.185099
vn 0.106878 0.976885 -0.185129
vn -0.476107 0.305349 0.824672
vn 0.476107 0.305349 0.824672
vn 0.106878 0.976885 -0.185129
vn 0.213756 0.976887 -0.000000
vn -0.952241 0.305348 0.000000
vn -0.476107 0.305349 0.824672
vn 0.213756 0.976887 -0.000000
vn 0.106878 0.976885 0.185129
vn -0.476107 0.305349 -0.824672
vn -0.952241 0.305348 0.000000
vn 0.106878 0.976885 0.185129
vn -0.106878 0.976885 0.185129
vn 0.476107 0.305349 -0.824672
vn -0.476107 0.305349 -0.824672
vn -0.106878 0.976885 0.185129
vn -0.213756 0.976887 0.000000
vn 0.952241 0.305348 -0.000000
vn 0.476107 0.305349 -0.824672
vn -0.106878 0.976885 0.185129
vn 0.106878 0.976885 0.185129
vn 0.297344 0.803956 0.515015
vn -0.297344 0.803957 0.515015
vn 0.106878 0.976885 0.185129
vn 0.213756 0.976887 -0.000000
vn 0.594688 0.803956 -0.000000
vn 0.297344 0.803956 0.515015
vn 0.213756 0.976887 -0.000000
vn 0.106878 0.976885 -0.185129
vn 0.297344 0.803957 -0.515015
vn 0.594688 0.803956 -0.000000
vn 0.106878 0.976885 -0.185129
vn -0.106878 0.976891 -0.185099
vn -0.297344 0.803957 -0.515015
vn 0.297344 0.803957 -0.515015
vn -0.106878 0.976891 -0.185099
vn -0.213756 0.976887 0.000000
vn -0.594688 0.803957 -0.000000
vn -0.297344 0.803957 -0.515015
vn 0.000000 1.000000 -0.000000
vn 0.000000 1.000000 -0.000000
vn 0.000000 1.000000 -0.000000
vn 0.000000 1.000000 -0.000000
vn 0.000000 1.000000 -0.000000
vn 0.000000 1.000000 -0.000000
vn 0.000000 1.000000 -0.000000
vn 0.000000 1.000000 -0.000000
vn 0.000000 1.000000 -0.000000
vn 0.000000 1.000000 -0.000000
vn 0.000000 1.000000 -0.000000
vn 0.000000 1.000000 -0.000000
vn 0.410973 -0.569520 -0.711862
vn 0.821977 -0.569521 -0.000000
vn 0.410973 -0.569520 0.711862
vn -0.410973 -0.569520 0.711862
vn -0.821977 -0.569521 0.000000
vn -0.410973 -0.569520 -0.711862
vn 0.379993 0.649933 -0.658174
vn -0.379992 0.649933 -0.658174
vn -0.759988 0.649937 0.000000
vn -0.379992 0.649933 0.658174
vn 0.379993 0.649933 0.658174
vn 0.759989 0.649936 -0.000000
vn 0.821977 -0.569521 -0.000000
vn 0.410973 -0.569520 -0.711862
vn 0.379993 0.649933 -0.658174
vn 0.759989 0.649936 -0.000000
vn 0.410973 -0.569520 -0.711862
vn -0.410973 -0.569520 -0.711862
vn -0.379992 0.649933 -0.658174
vn 0.379993 0.649933 -0.658174
vn -0.410973 -0.569520 -0.711862
vn -0.821977 -0.569521 0.000000
vn -0.759988 0.649937 0.000000
vn -0.379992 0.649933 -0.658174
vn -0.821977 -0.569521 0.000000
vn -0.410973 -0.569520 0.711862
vn -0.379992 0.649933 0.658174
vn -0.759988 0.649937 0.000000
vn -0.410973 -0.569520 0.711862
vn 0.410973 -0.569520 0.711862
vn 0.379993 0.649933 0.658174
vn -0.379992 0.649933 0.658174
vn 0.410973 -0.569520 0.711862
vn 0.821977 -0.569521 -0.000000
vn 0.759989 0.649936 -0.000000
vn 0.379993 0.649933 0.658174
s off
g Fountain_1
usemtl BenchSG
f 1/119/1 7/120/2 12/121/3 6/122/4
f 6/123/5 12/118/6 11/124/7 5/76/8
f 5/77/9 11/78/10 10/63/11 4/129/12
f 4/28/13 10/29/14 9/117/15 3/79/16
f 3/53/17 9/54/18 8/55/19 2/56/20
f 2/57/21 8/58/22 7/64/23 1/104/24
f 12/121/25 7/120/26 13/130/27 18/65/28
f 11/124/29 12/118/30 18/47/31 17/34/32
f 10/63/33 11/78/34 17/91/35 16/12/36
f 9/117/37 10/29/38 16/43/39 15/31/40
f 8/55/41 9/54/42 15/32/43 14/102/44
f 7/64/45 8/58/46 14/44/47 13/10/48
f 18/65/49 13/130/50 19/33/51 24/11/52
f 17/34/53 18/47/54 24/89/55 23/90/56
f 16/12/57 17/91/58 23/19/59 22/16/60
f 15/31/61 16/43/62 22/17/63 21/18/64
f 14/102/65 15/32/66 21/23/67 20/3/68
f 13/10/69 14/44/70 20/93/71 19/107/72
f 29/108/73 30/109/74 25/24/75 26/110/76 27/111/77 28/112/78
f 43/25/79 48/113/80 54/26/81 49/27/82
f 37/45/83 38/70/84 35/114/85 36/72/86
f 38/70/87 39/59/88 34/92/89 35/114/90
f 39/59/91 40/60/92 33/61/93 34/92/94
f 40/46/95 41/1/96 32/105/97 33/125/98
f 41/1/99 42/74/100 31/73/101 32/105/102
f 42/74/103 37/45/104 36/72/105 31/73/106
f 25/24/107 30/109/108 37/62/109 42/2/110
f 26/110/111 25/24/112 42/2/113 41/103/114
f 27/111/115 26/110/116 41/103/117 40/22/118
f 28/112/119 27/111/120 40/81/121 39/116/122
f 29/108/123 28/112/124 39/116/125 38/126/126
f 30/109/127 29/108/128 38/126/129 37/62/130
f 43/71/131 44/75/132 31/48/133 36/115/134
f 44/75/135 45/35/136 32/21/137 31/48/138
f 45/35/139 46/20/140 33/13/141 32/21/142
f 46/20/143 47/4/144 34/5/145 33/13/146
f 47/4/147 48/82/148 35/106/149 34/5/150
f 48/82/151 43/71/152 36/115/153 35/106/154
f 48/113/155 47/83/156 53/94/157 54/26/158
f 47/83/159 46/14/160 52/84/161 53/94/162
f 46/14/163 45/100/164 51/95/165 52/84/166
f 45/100/167 44/96/168 50/97/169 51/95/170
f 44/96/171 43/25/172 49/27/173 50/97/174
f 60/36/175 59/37/176 58/6/177 57/7/178 56/38/179 55/39/180
f 62/66/181 63/98/182 64/42/183 65/40/184 66/87/185 61/80/186
f 72/9/187 67/127/188 68/51/189 69/101/190 70/88/191 71/67/192
f 78/86/193 77/99/194 76/49/195 75/41/196 74/15/197 73/128/198
f 67/127/199 72/9/200 78/52/201 73/85/202
f 72/9/203 71/67/204 77/50/205 78/68/206
f 71/67/207 70/88/208 76/69/209 77/50/210
f 70/88/211 69/101/212 75/30/213 76/69/214
f 69/101/215 68/51/216 74/8/217 75/30/218
f 68/51/219 67/127/220 73/85/221 74/8/222
