# This file uses meters as units for non-parametric coordinates.

mtllib Plank.mtl
g default
v 91.939926 54.035923 -99.885742
v 124.755096 54.035915 -99.885742
v 124.755104 30.329407 98.704292
v 91.939934 30.329414 98.704292
v 91.939919 63.932838 -98.704308
v 124.755096 63.932831 -98.704308
v 124.755104 40.226322 99.885727
v 91.939934 40.226330 99.885727
v 95.749695 0.000001 -81.872185
v 90.013367 0.000003 -89.767563
v 80.731812 0.000005 -86.751793
v 80.731804 0.000005 -76.992577
v 90.013367 0.000003 -73.976814
v 95.749710 64.568344 -81.872185
v 90.013390 64.568344 -89.767563
v 80.731827 64.568352 -86.751793
v 80.731827 64.568352 -76.992577
v 90.013390 64.568344 -73.976814
v 95.749710 0.000001 79.236145
v 90.013390 0.000003 71.340767
v 80.731827 0.000005 74.356537
v 80.731827 0.000005 84.115746
v 90.013390 0.000003 87.131516
v 95.749733 64.568344 79.236145
v 90.013405 64.568344 71.340767
v 80.731850 64.568352 74.356537
v 80.731842 64.568352 84.115746
v 90.013405 64.568344 87.131516
v 48.559563 42.147549 -100.000000
v 81.374733 42.147537 -100.000008
v 81.374748 42.147537 99.999992
v 48.559578 42.147549 100.000000
v 48.559566 52.114731 -100.000000
v 81.374733 52.114723 -100.000008
v 81.374748 52.114723 99.999992
v 48.559582 52.114731 100.000000
v 4.391472 42.147560 -100.000000
v 37.206642 42.147552 -100.000000
v 37.206657 42.147552 100.000000
v 4.391487 42.147560 100.000000
v 4.391475 52.114746 -100.000000
v 37.206646 52.114735 -100.000000
v 37.206661 52.114735 100.000000
v 4.391490 52.114746 100.000000
v -47.793217 42.147575 -97.839615
v -15.144831 42.147568 -101.143883
v 4.993839 42.147560 97.839622
v -27.654543 42.147568 101.143890
v -47.793213 52.114761 -97.839615
v -15.144827 52.114750 -101.143883
v 4.993842 52.114746 97.839615
v -27.654539 52.114754 101.143890
v -90.211296 42.147587 -98.927467
v -57.447365 42.147575 -100.760307
v -46.276649 42.147575 98.927483
v -79.040588 42.147583 100.760323
v -90.211296 52.114773 -98.927467
v -57.447365 52.114761 -100.760315
v -46.276646 52.114761 98.927475
v -79.040581 52.114769 100.760323
v -41.768616 0.000040 -81.872169
v -47.504940 0.000041 -89.767540
v -56.786507 0.000044 -86.751770
v -56.786503 0.000044 -76.992561
v -47.504940 0.000041 -73.976791
v -41.768597 64.568382 -81.872169
v -47.504921 64.568382 -89.767540
v -56.786488 64.568390 -86.751770
v -56.786484 64.568390 -76.992561
v -47.504925 64.568382 -73.976791
v -35.422276 0.000038 79.236160
v -41.158600 0.000040 71.340782
v -50.440163 0.000042 74.356552
v -50.440163 0.000042 84.115761
v -41.158600 0.000040 87.131531
v -35.422256 64.568375 79.236160
v -41.158581 64.568382 71.340782
v -50.440144 64.568382 74.356552
v -50.440144 64.568382 84.115761
v -41.158585 64.568382 87.131531
v -124.755104 42.147598 -99.999985
v -91.939934 42.147587 -99.999985
v -91.939919 42.147587 100.000023
v -124.755089 42.147598 100.000023
v -124.755096 52.114780 -99.999985
v -91.939926 52.114773 -99.999985
v -91.939911 52.114773 100.000023
v -124.755081 52.114780 100.000023
vt 0.257592 0.982222
vt 0.353043 0.894956
vt 0.314697 0.894956
vt 0.491301 0.958844
vt 0.257592 0.844795
vt 0.257592 0.806449
vt 0.491302 0.806449
vt 0.491302 0.844795
vt 0.491302 0.844879
vt 0.491302 0.883225
vt 0.491301 0.970491
vt 0.257592 0.970491
vt 0.257592 0.958844
vt 0.491301 0.970575
vt 0.314697 0.895040
vt 0.353043 0.895040
vt 0.353043 0.906687
vt 0.314697 0.906687
vt 0.257592 0.970575
vt 0.491301 0.982222
vt 0.356651 0.900858
vt 0.257592 0.958760
vt 0.257592 0.883309
vt 0.314613 0.883309
vt 0.314613 0.958760
vt 0.303209 0.958760
vt 0.303209 0.883309
vt 0.353127 0.890012
vt 0.362353 0.883309
vt 0.371579 0.890012
vt 0.368055 0.900858
vt 0.314697 0.883309
vt 0.353043 0.883309
vt 0.257592 0.883225
vt 0.257592 0.844879
vt 0.291805 0.883309
vt 0.291805 0.958760
vt 0.280401 0.958760
vt 0.280401 0.883309
vt 0.268997 0.958760
vt 0.268997 0.883309
vt 0.291805 0.883309
vt 0.291805 0.958760
vt 0.280401 0.958760
vt 0.280401 0.883309
vt 0.280401 0.883309
vt 0.280401 0.958760
vt 0.268997 0.958760
vt 0.268997 0.883309
vt 0.268997 0.883309
vt 0.268997 0.958760
vt 0.257592 0.958760
vt 0.257592 0.883309
vt 0.314613 0.883309
vt 0.314613 0.958760
vt 0.303209 0.958760
vt 0.303209 0.883309
vt 0.303209 0.883309
vt 0.303209 0.958760
vt 0.291805 0.958760
vt 0.291805 0.883309
vt 0.353127 0.890012
vt 0.362353 0.883309
vt 0.371579 0.890012
vt 0.368055 0.900858
vt 0.356651 0.900858
vt 0.314697 0.895040
vt 0.353043 0.895040
vt 0.353043 0.906687
vt 0.314697 0.906687
vt 0.257592 0.970575
vt 0.491301 0.970575
vt 0.491301 0.982222
vt 0.257592 0.982222
vt 0.353043 0.894956
vt 0.314697 0.894956
vt 0.314697 0.883309
vt 0.353043 0.883309
vt 0.491301 0.970491
vt 0.257592 0.970491
vt 0.257592 0.958844
vt 0.491301 0.958844
vt 0.257592 0.844795
vt 0.257592 0.806449
vt 0.491302 0.806449
vt 0.491302 0.844795
vt 0.491302 0.844879
vt 0.491302 0.883225
vt 0.257592 0.883225
vt 0.257592 0.844879
vt 0.314697 0.895040
vt 0.353043 0.895040
vt 0.353043 0.906687
vt 0.314697 0.906687
vt 0.257592 0.970575
vt 0.491301 0.970575
vt 0.491301 0.982222
vt 0.257592 0.982222
vt 0.353043 0.894956
vt 0.314697 0.894956
vt 0.314697 0.883309
vt 0.353043 0.883309
vt 0.491301 0.970491
vt 0.257592 0.970491
vt 0.257592 0.958844
vt 0.491301 0.958844
vt 0.257592 0.844795
vt 0.257592 0.806449
vt 0.491302 0.806449
vt 0.491302 0.844795
vt 0.491302 0.844879
vt 0.491302 0.883225
vt 0.257592 0.883225
vt 0.257592 0.844879
vt 0.314697 0.895040
vt 0.353043 0.895040
vt 0.353043 0.906687
vt 0.314697 0.906687
vt 0.257592 0.970575
vt 0.491301 0.970575
vt 0.491301 0.982222
vt 0.257592 0.982222
vt 0.353043 0.894956
vt 0.314697 0.894956
vt 0.314697 0.883309
vt 0.353043 0.883309
vt 0.491301 0.970491
vt 0.257592 0.970491
vt 0.257592 0.958844
vt 0.491301 0.958844
vt 0.257592 0.844795
vt 0.257592 0.806449
vt 0.491302 0.806449
vt 0.491302 0.844795
vt 0.491302 0.844879
vt 0.491302 0.883225
vt 0.257592 0.883225
vt 0.257592 0.844879
vt 0.314697 0.895040
vt 0.353043 0.895040
vt 0.353043 0.906687
vt 0.314697 0.906687
vt 0.257592 0.970575
vt 0.491301 0.970575
vt 0.491301 0.982222
vt 0.257592 0.982222
vt 0.353043 0.894956
vt 0.314697 0.894956
vt 0.314697 0.883309
vt 0.353043 0.883309
vt 0.491301 0.970491
vt 0.257592 0.970491
vt 0.257592 0.958844
vt 0.491301 0.958844
vt 0.257592 0.844795
vt 0.257592 0.806449
vt 0.491302 0.806449
vt 0.491302 0.844795
vt 0.491302 0.844879
vt 0.491302 0.883225
vt 0.257592 0.883225
vt 0.257592 0.844879
vt 0.291805 0.883309
vt 0.291805 0.958760
vt 0.280401 0.958760
vt 0.280401 0.883309
vt 0.280401 0.883309
vt 0.280401 0.958760
vt 0.268997 0.958760
vt 0.268997 0.883309
vt 0.268997 0.883309
vt 0.268997 0.958760
vt 0.257592 0.958760
vt 0.257592 0.883309
vt 0.314613 0.883309
vt 0.314613 0.958760
vt 0.303209 0.958760
vt 0.303209 0.883309
vt 0.303209 0.883309
vt 0.303209 0.958760
vt 0.291805 0.958760
vt 0.291805 0.883309
vt 0.353127 0.890012
vt 0.362353 0.883309
vt 0.371579 0.890012
vt 0.368055 0.900858
vt 0.356651 0.900858
vt 0.291805 0.883309
vt 0.291805 0.958760
vt 0.280401 0.958760
vt 0.280401 0.883309
vt 0.280401 0.883309
vt 0.280401 0.958760
vt 0.268997 0.958760
vt 0.268997 0.883309
vt 0.268997 0.883309
vt 0.268997 0.958760
vt 0.257592 0.958760
vt 0.257592 0.883309
vt 0.314613 0.883309
vt 0.314613 0.958760
vt 0.303209 0.958760
vt 0.303209 0.883309
vt 0.303209 0.883309
vt 0.303209 0.958760
vt 0.291805 0.958760
vt 0.291805 0.883309
vt 0.353127 0.890012
vt 0.362353 0.883309
vt 0.371579 0.890012
vt 0.368055 0.900858
vt 0.356651 0.900858
vt 0.314697 0.895040
vt 0.353043 0.895040
vt 0.353043 0.906687
vt 0.314697 0.906687
vt 0.257592 0.970575
vt 0.491301 0.970575
vt 0.491301 0.982222
vt 0.257592 0.982222
vt 0.353043 0.894956
vt 0.314697 0.894956
vt 0.314697 0.883309
vt 0.353043 0.883309
vt 0.491301 0.970491
vt 0.257592 0.970491
vt 0.257592 0.958844
vt 0.491301 0.958844
vt 0.257592 0.844795
vt 0.257592 0.806449
vt 0.491302 0.806449
vt 0.491302 0.844795
vt 0.491302 0.844879
vt 0.491302 0.883225
vt 0.257592 0.883225
vt 0.257592 0.844879
vn -0.577353 0.641717 -0.504840
vn 0.577353 0.641716 -0.504840
vn 0.577353 -0.504840 -0.641717
vn -0.577353 -0.504840 -0.641717
vn 0.577353 0.641716 -0.504840
vn 0.577353 0.504840 0.641717
vn 0.577353 -0.641717 0.504840
vn 0.577353 -0.504840 -0.641717
vn 0.577353 0.504840 0.641717
vn -0.577353 0.504840 0.641717
vn -0.577353 -0.641716 0.504840
vn 0.577353 -0.641717 0.504840
vn -0.577353 0.504840 0.641717
vn -0.577353 0.641717 -0.504840
vn -0.577353 -0.504840 -0.641717
vn -0.577353 -0.641716 0.504840
vn -0.577353 -0.504840 -0.641717
vn 0.577353 -0.504840 -0.641717
vn 0.577353 -0.641717 0.504840
vn -0.577353 -0.641716 0.504840
vn -0.577353 0.504840 0.641717
vn 0.577353 0.504840 0.641717
vn 0.577353 0.641716 -0.504840
vn -0.577353 0.641717 -0.504840
vn 1.000000 -0.000000 -0.000000
vn 0.803204 0.595704 -0.000000
vn 0.248183 0.595706 0.763898
vn 0.309017 -0.000000 0.951057
vn 0.309017 -0.000000 0.951057
vn 0.248183 0.595706 0.763898
vn -0.649814 0.595704 0.472101
vn -0.809017 0.000000 0.587785
vn -0.809017 0.000000 0.587785
vn -0.649814 0.595704 0.472101
vn -0.649814 0.595704 -0.472101
vn -0.809017 0.000000 -0.587785
vn -0.809017 0.000000 -0.587785
vn -0.649814 0.595704 -0.472101
vn 0.248183 0.595706 -0.763898
vn 0.309016 -0.000000 -0.951057
vn 0.309016 -0.000000 -0.951057
vn 0.248183 0.595706 -0.763898
vn 0.803204 0.595704 -0.000000
vn 1.000000 -0.000000 -0.000000
vn 0.248183 0.595706 -0.763898
vn -0.649814 0.595704 -0.472101
vn -0.649814 0.595704 0.472101
vn 0.248183 0.595706 0.763898
vn 0.803204 0.595704 -0.000000
vn 1.000000 -0.000000 -0.000000
vn 0.803204 0.595704 -0.000000
vn 0.248183 0.595706 0.763898
vn 0.309016 -0.000000 0.951057
vn 0.309016 -0.000000 0.951057
vn 0.248183 0.595706 0.763898
vn -0.649814 0.595704 0.472101
vn -0.809017 0.000000 0.587785
vn -0.809017 0.000000 0.587785
vn -0.649814 0.595704 0.472101
vn -0.649814 0.595704 -0.472101
vn -0.809017 0.000000 -0.587785
vn -0.809017 0.000000 -0.587785
vn -0.649814 0.595704 -0.472101
vn 0.248183 0.595706 -0.763898
vn 0.309017 -0.000000 -0.951057
vn 0.309017 -0.000000 -0.951057
vn 0.248183 0.595706 -0.763898
vn 0.803204 0.595704 -0.000000
vn 1.000000 -0.000000 -0.000000
vn 0.248183 0.595706 -0.763898
vn -0.649814 0.595704 -0.472101
vn -0.649814 0.595704 0.472101
vn 0.248183 0.595706 0.763898
vn 0.803204 0.595704 -0.000000
vn -0.577350 0.577350 -0.577350
vn 0.577350 0.577350 -0.577350
vn 0.577350 -0.577350 -0.577350
vn -0.577350 -0.577350 -0.577350
vn 0.577350 0.577350 -0.577350
vn 0.577350 0.577350 0.577350
vn 0.577350 -0.577350 0.577350
vn 0.577350 -0.577350 -0.577350
vn 0.577350 0.577350 0.577350
vn -0.577350 0.577350 0.577350
vn -0.577350 -0.577350 0.577350
vn 0.577350 -0.577350 0.577350
vn -0.577350 0.577350 0.577350
vn -0.577350 0.577350 -0.577350
vn -0.577350 -0.577350 -0.577350
vn -0.577350 -0.577350 0.577350
vn -0.577350 -0.577350 -0.577350
vn 0.577350 -0.577350 -0.577350
vn 0.577350 -0.577350 0.577350
vn -0.577350 -0.577350 0.577350
vn -0.577350 0.577350 0.577350
vn 0.577350 0.577350 0.577350
vn 0.577350 0.577350 -0.577350
vn -0.577350 0.577350 -0.577350
vn -0.577350 0.577350 -0.577350
vn 0.577350 0.577350 -0.577350
vn 0.577350 -0.577350 -0.577350
vn -0.577350 -0.577350 -0.577350
vn 0.577350 0.577350 -0.577350
vn 0.577350 0.577350 0.577350
vn 0.577350 -0.577350 0.577350
vn 0.577350 -0.577350 -0.577350
vn 0.577350 0.577350 0.577350
vn -0.577350 0.577350 0.577350
vn -0.577350 -0.577350 0.577350
vn 0.577350 -0.577350 0.577350
vn -0.577350 0.577350 0.577350
vn -0.577350 0.577350 -0.577350
vn -0.577350 -0.577350 -0.577350
vn -0.577350 -0.577350 0.577350
vn -0.577350 -0.577350 -0.577350
vn 0.577350 -0.577350 -0.577350
vn 0.577350 -0.577350 0.577350
vn -0.577350 -0.577350 0.577350
vn -0.577350 0.577350 0.577350
vn 0.577350 0.577350 0.577350
vn 0.577350 0.577350 -0.577350
vn -0.577350 0.577350 -0.577350
vn -0.632546 0.577367 -0.516267
vn 0.516267 0.577367 -0.632547
vn 0.516267 -0.577367 -0.632547
vn -0.632547 -0.577367 -0.516267
vn 0.516267 0.577367 -0.632547
vn 0.632547 0.577367 0.516267
vn 0.632546 -0.577367 0.516267
vn 0.516267 -0.577367 -0.632547
vn 0.632547 0.577367 0.516267
vn -0.516267 0.577367 0.632547
vn -0.516267 -0.577367 0.632547
vn 0.632546 -0.577367 0.516267
vn -0.516267 0.577367 0.632547
vn -0.632546 0.577367 -0.516267
vn -0.632547 -0.577367 -0.516267
vn -0.516267 -0.577367 0.632547
vn -0.632547 -0.577367 -0.516267
vn 0.516267 -0.577367 -0.632547
vn 0.632546 -0.577367 0.516267
vn -0.516267 -0.577367 0.632547
vn -0.516267 0.577367 0.632547
vn 0.632547 0.577367 0.516267
vn 0.516267 0.577367 -0.632547
vn -0.632546 0.577367 -0.516267
vn -0.608702 0.577360 -0.544185
vn 0.544185 0.577359 -0.608702
vn 0.544185 -0.577360 -0.608702
vn -0.608703 -0.577359 -0.544185
vn 0.544185 0.577359 -0.608702
vn 0.608703 0.577359 0.544185
vn 0.608702 -0.577360 0.544185
vn 0.544185 -0.577360 -0.608702
vn 0.608703 0.577359 0.544185
vn -0.544185 0.577360 0.608702
vn -0.544185 -0.577359 0.608702
vn 0.608702 -0.577360 0.544185
vn -0.544185 0.577360 0.608702
vn -0.608702 0.577360 -0.544185
vn -0.608703 -0.577359 -0.544185
vn -0.544185 -0.577359 0.608702
vn -0.608703 -0.577359 -0.544185
vn 0.544185 -0.577360 -0.608702
vn 0.608702 -0.577360 0.544185
vn -0.544185 -0.577359 0.608702
vn -0.544185 0.577360 0.608702
vn 0.608703 0.577359 0.544185
vn 0.544185 0.577359 -0.608702
vn -0.608702 0.577360 -0.544185
vn 1.000000 -0.000000 0.000000
vn 0.803204 0.595704 -0.000000
vn 0.248183 0.595706 0.763898
vn 0.309017 -0.000000 0.951057
vn 0.309017 -0.000000 0.951057
vn 0.248183 0.595706 0.763898
vn -0.649814 0.595704 0.472101
vn -0.809017 0.000000 0.587785
vn -0.809017 0.000000 0.587785
vn -0.649814 0.595704 0.472101
vn -0.649814 0.595704 -0.472101
vn -0.809017 0.000000 -0.587785
vn -0.809017 0.000000 -0.587785
vn -0.649814 0.595704 -0.472101
vn 0.248183 0.595706 -0.763898
vn 0.309016 -0.000000 -0.951057
vn 0.309016 -0.000000 -0.951057
vn 0.248183 0.595706 -0.763898
vn 0.803204 0.595704 -0.000000
vn 1.000000 -0.000000 0.000000
vn 0.248183 0.595706 -0.763898
vn -0.649814 0.595704 -0.472101
vn -0.649814 0.595704 0.472101
vn 0.248183 0.595706 0.763898
vn 0.803204 0.595704 -0.000000
vn 1.000000 -0.000000 0.000000
vn 0.803204 0.595704 -0.000000
vn 0.248183 0.595706 0.763898
vn 0.309017 -0.000000 0.951057
vn 0.309017 -0.000000 0.951057
vn 0.248183 0.595706 0.763898
vn -0.649814 0.595704 0.472101
vn -0.809017 0.000000 0.587785
vn -0.809017 0.000000 0.587785
vn -0.649814 0.595704 0.472101
vn -0.649814 0.595704 -0.472101
vn -0.809017 0.000000 -0.587785
vn -0.809017 0.000000 -0.587785
vn -0.649814 0.595704 -0.472101
vn 0.248183 0.595706 -0.763898
vn 0.309017 -0.000000 -0.951057
vn 0.309017 -0.000000 -0.951057
vn 0.248183 0.595706 -0.763898
vn 0.803204 0.595704 -0.000000
vn 1.000000 -0.000000 0.000000
vn 0.248183 0.595706 -0.763898
vn -0.649814 0.595704 -0.472101
vn -0.649814 0.595704 0.472101
vn 0.248183 0.595706 0.763898
vn 0.803204 0.595704 -0.000000
vn -0.577350 0.577350 -0.577350
vn 0.577350 0.577350 -0.577350
vn 0.577350 -0.577350 -0.577350
vn -0.577350 -0.577350 -0.577350
vn 0.577350 0.577350 -0.577350
vn 0.577350 0.577350 0.577350
vn 0.577350 -0.577350 0.577350
vn 0.577350 -0.577350 -0.577350
vn 0.577350 0.577350 0.577350
vn -0.577350 0.577350 0.577350
vn -0.577350 -0.577350 0.577350
vn 0.577350 -0.577350 0.577350
vn -0.577350 0.577350 0.577350
vn -0.577350 0.577350 -0.577350
vn -0.577350 -0.577350 -0.577350
vn -0.577350 -0.577350 0.577350
vn -0.577350 -0.577350 -0.577350
vn 0.577350 -0.577350 -0.577350
vn 0.577350 -0.577350 0.577350
vn -0.577350 -0.577350 0.577350
vn -0.577350 0.577350 0.577350
vn 0.577350 0.577350 0.577350
vn 0.577350 0.577350 -0.577350
vn -0.577350 0.577350 -0.577350
s off
g WoodenFBXASC032Bridge
usemtl BenchSG
f 5/15/1 6/16/2 2/17/3 1/18/4
f 6/19/5 7/14/6 3/20/7 2/1/8
f 7/2/9 8/3/10 4/32/11 3/33/12
f 8/11/13 5/12/14 1/13/15 4/4/16
f 1/5/17 2/6/18 3/7/19 4/8/20
f 8/9/21 7/10/22 6/34/23 5/35/24
f 9/36/25 14/37/26 18/38/27 13/39/28
f 13/39/29 18/38/30 17/40/31 12/41/32
f 12/41/33 17/40/34 16/22/35 11/23/36
f 11/24/37 16/25/38 15/26/39 10/27/40
f 10/27/41 15/26/42 14/37/43 9/36/44
f 15/28/45 16/29/46 17/30/47 18/31/48 14/21/49
f 19/42/50 24/43/51 28/44/52 23/45/53
f 23/46/54 28/47/55 27/48/56 22/49/57
f 22/50/58 27/51/59 26/52/60 21/53/61
f 21/54/62 26/55/63 25/56/64 20/57/65
f 20/58/66 25/59/67 24/60/68 19/61/69
f 25/62/70 26/63/71 27/64/72 28/65/73 24/66/74
f 33/67/75 34/68/76 30/69/77 29/70/78
f 34/71/79 35/72/80 31/73/81 30/74/82
f 35/75/83 36/76/84 32/77/85 31/78/86
f 36/79/87 33/80/88 29/81/89 32/82/90
f 29/83/91 30/84/92 31/85/93 32/86/94
f 36/87/95 35/88/96 34/89/97 33/90/98
f 41/91/99 42/92/100 38/93/101 37/94/102
f 42/95/103 43/96/104 39/97/105 38/98/106
f 43/99/107 44/100/108 40/101/109 39/102/110
f 44/103/111 41/104/112 37/105/113 40/106/114
f 37/107/115 38/108/116 39/109/117 40/110/118
f 44/111/119 43/112/120 42/113/121 41/114/122
f 49/115/123 50/116/124 46/117/125 45/118/126
f 50/119/127 51/120/128 47/121/129 46/122/130
f 51/123/131 52/124/132 48/125/133 47/126/134
f 52/127/135 49/128/136 45/129/137 48/130/138
f 45/131/139 46/132/140 47/133/141 48/134/142
f 52/135/143 51/136/144 50/137/145 49/138/146
f 57/139/147 58/140/148 54/141/149 53/142/150
f 58/143/151 59/144/152 55/145/153 54/146/154
f 59/147/155 60/148/156 56/149/157 55/150/158
f 60/151/159 57/152/160 53/153/161 56/154/162
f 53/155/163 54/156/164 55/157/165 56/158/166
f 60/159/167 59/160/168 58/161/169 57/162/170
f 61/163/171 66/164/172 70/165/173 65/166/174
f 65/167/175 70/168/176 69/169/177 64/170/178
f 64/171/179 69/172/180 68/173/181 63/174/182
f 63/175/183 68/176/184 67/177/185 62/178/186
f 62/179/187 67/180/188 66/181/189 61/182/190
f 67/183/191 68/184/192 69/185/193 70/186/194 66/187/195
f 71/188/196 76/189/197 80/190/198 75/191/199
f 75/192/200 80/193/201 79/194/202 74/195/203
f 74/196/204 79/197/205 78/198/206 73/199/207
f 73/200/208 78/201/209 77/202/210 72/203/211
f 72/204/212 77/205/213 76/206/214 71/207/215
f 77/208/216 78/209/217 79/210/218 80/211/219 76/212/220
f 85/213/221 86/214/222 82/215/223 81/216/224
f 86/217/225 87/218/226 83/219/227 82/220/228
f 87/221/229 88/222/230 84/223/231 83/224/232
f 88/225/233 85/226/234 81/227/235 84/228/236
f 81/229/237 82/230/238 83/231/239 84/232/240
f 88/233/241 87/234/242 86/235/243 85/236/244
